<svg xmlns="http://www.w3.org/2000/svg" xmlns:xlink="http://www.w3.org/1999/xlink" viewBox="0 0 225.98 410.66"><defs><style>.cls-1{fill:none;}.cls-2{fill:#0d438d;}.cls-3{fill:#0d3666;}.cls-4{fill:#fd801a;}.cls-5{fill:#98d5ff;}.cls-6{fill:#ffbe83;}.cls-7{fill:#7db3d1;}.cls-8{clip-path:url(#clip-path);}.cls-9{fill:#ffa600;}.cls-10{fill:#051a2d;}.cls-11{fill:#b3aa9d;}.cls-12{fill:#d87c60;}.cls-13{fill:#fff;}</style><clipPath id="clip-path"><path class="cls-1" d="M108.48,75.23,79,77.6l-9.72,48.52L44.61,81.69,43,81.9,13,95.67,30.47,209.13s23.36,9.17,44.22,7.5V200l3.75,16.68s22.11-2.08,35.88-15.43Z"/></clipPath></defs><g id="Layer_2" data-name="Layer 2"><g id="OBJECTS"><path class="cls-2" d="M103.62,156s23.44,132.62,24.48,239.31c0,0-15.59,5.91-20.78,2.11-5.3-25.11-8-56.77-15.91-93.1C84,270.15,75.53,229.67,75.53,229.67l-3.11.61s-15.84,156.23-18.22,169c-16.37,4.62-22.37-1.82-22.37-1.82S30,212,33.33,178.17C37.65,133.91,103.62,156,103.62,156Z"/><path class="cls-3" d="M31.38,322.27c.12,41.37.45,75.16.45,75.16s6,6.44,22.37,1.82c1.07-5.72,4.86-40.4,8.7-76.86C52.41,322.72,41.88,322.11,31.38,322.27Z"/><path class="cls-3" d="M112.2,218.14c6.31,47.47,15.24,108.74,15.9,177.21,0,0-15.59,5.91-20.78,2.11-5.3-25.11-8-56.77-15.91-93.1-7-32-14.78-69.44-15.77-74.18C88.55,227.89,101,224.21,112.2,218.14Z"/><path class="cls-4" d="M26.3,329.51l38.38,1.67-8.35,74.25s-73.41,14.18-27.53-4.17Z"/><path class="cls-4" d="M131.42,327.84l-35.88,3.34,12.52,75.08s77.11,6.25,29.41-6.66Z"/><path class="cls-5" d="M15.87,96.08S3.78,100.26.44,108.18s12.93,76.75,28.36,77.17S15.87,96.08,15.87,96.08Z"/><polygon class="cls-6" points="37.7 64.8 42.71 86.77 63.84 83.71 46.05 57.57 37.7 64.8"/><path class="cls-6" d="M190.37,56.6s35.07-9.76,35.6-7.12S208,57.39,208,57.39L212.52,54s4.48,2.64,1.85,5.54c0,0,3.16,2.37-1.85,4.75,0,0,3.69,2.63-2.11,4.21s-19.77,5.81-19.77,5.81Z"/><path class="cls-5" d="M41.08,85.73s33.66,69.41,34.29,67.53,30-39.41,30-39.41l96.09-41.26-3.68-19-97.41,24H76L39.08,85.69"/><path class="cls-7" d="M114.22,74.16,100.9,77.44c.08,3.8.1,7.61.15,11.41.1,6.55.56,13,1.08,19.55.23,2.93.45,5.85.68,8.77l2.59-3.32,15.49-6.65A334.88,334.88,0,0,1,114.22,74.16Z"/><path class="cls-7" d="M90.22,89.46c-.34-.31-.33-1,.18-1.07a76.24,76.24,0,0,1,9.54-.69c0-3.38-.06-6.76-.14-10.14H76l-36.41,8,.09.12,1.41,0,1.69,3.47C55.28,101.23,79,103.39,90.22,89.46Z"/><path class="cls-4" d="M108.48,75.23,79,77.6l-9.72,48.52L44.61,81.69,43,81.9,13,95.67,30.47,209.13s23.36,9.17,44.22,7.5V200l3.75,16.68s22.11-2.08,35.88-15.43Z"/><g class="cls-8"><polygon class="cls-9" points="19.68 86.32 37.2 154.52 7.17 158.27 10.3 169.53 124.17 157.65 122.92 146.38 103.52 147.63 97.27 68.8 86 69.43 90.39 148.88 48.47 153.89 32.2 78.19 19.68 86.32"/><polygon class="cls-9" points="7.8 180.17 124.8 168.91 126.05 178.29 10.93 191.43 7.8 180.17"/></g><rect class="cls-10" x="48.38" y="120.4" width="54.24" height="71.05" transform="translate(-29.96 18.48) rotate(-11.66)"/><rect class="cls-11" x="57.13" y="117.02" width="20.11" height="7.36" transform="translate(-23.01 16.07) rotate(-11.66)"/><path class="cls-6" d="M74.69,148.23s34.2-12.94,25.86-4.59c0,0,7.09.41.83,4.17,0,0,5.84,1.67,1.67,3.75,0,0,7.09,1.67-2.92,5.84s-29.61,13.35-29.61,13.35Z"/><path class="cls-5" d="M81.78,145.31,35,156.16,13,95.67l6.26,70.49.21-.08,1.11,13.13c11.24,21.34,68.34-16.39,68.34-16.39Z"/><path class="cls-6" d="M76.86,27.27c-.27-1-.44-1.53-.44-1.53L37.1,32.45C40.63,108.77,76,80.36,82.87,75.75,89,71.64,79.11,35.2,76.86,27.27Z"/><path class="cls-10" d="M41.84,33.62S46.56,77.48,52.93,78s1.45-7.56,1-13.91,14.05-6.85,20.93-6.51c6.37.33,3.7,14.73,6,14.49s4.86-4.79,2.88-14c0,0,12.93,14.81,1.19,26.47s-32.31,9.07-40.63,1.18S41,73.46,39.37,62.39s-2.24-13.11-2.24-13.11-3.33-3.44-5.12.9L30.8,36.85Z"/><path class="cls-6" d="M39.14,60.75S39,47.82,34.64,47.47s-6.08,20.41,5,18.2Z"/><path class="cls-4" d="M37.25,33.15c5.78-1.4,11.6-2.61,17.41-3.85,7.56-1.6,15.1-3.28,22.48-5.47A25.39,25.39,0,1,0,28.46,35.39C31.38,34.69,34.29,33.86,37.25,33.15Z"/><path class="cls-9" d="M61.47,23.64a25.1,25.1,0,0,1,.16,4.14q4.91-1.09,9.77-2.36a27.2,27.2,0,0,0-.18-3A25.41,25.41,0,0,0,48.35.24,25.22,25.22,0,0,0,42,2,25.38,25.38,0,0,1,61.47,23.64Z"/><path class="cls-9" d="M86.6,27.36A2.09,2.09,0,0,1,85,29.84L27.24,42.62A2.09,2.09,0,0,1,24.76,41l-1.68-8a2.08,2.08,0,0,1,1.62-2.47L82.45,17.77a2.09,2.09,0,0,1,2.47,1.62Z"/><path class="cls-4" d="M86.45,26.63,24.62,40.32l.14.69a2.09,2.09,0,0,0,2.48,1.61L85,29.84a2.09,2.09,0,0,0,1.61-2.48Z"/><path class="cls-12" d="M38.14,63.72a4.7,4.7,0,0,1-1.22-.53,2.7,2.7,0,0,1-.53-.43,1.54,1.54,0,0,1-.38-.61,1.28,1.28,0,0,1,0-.75,1.8,1.8,0,0,1,.12-.35l.17-.32a2.09,2.09,0,0,1,.22-.28c.08-.09.15-.19.23-.27l.51-.46-.11.24c-.14-1.48-.31-3-.54-4.42-.12-.73-.27-1.45-.45-2.15a6.75,6.75,0,0,0-.33-1,2.6,2.6,0,0,0-.47-.84c-.21-.2-.3-.24-.57-.09a.87.87,0,0,0-.33.28,2,2,0,0,0-.25.39,5,5,0,0,0-.37,1,9.19,9.19,0,0,0-.2,1.07,29.82,29.82,0,0,0-.21,4.45c-.14-.74-.22-1.49-.29-2.24a14.33,14.33,0,0,1,0-2.27A11,11,0,0,1,33.22,53a4.87,4.87,0,0,1,.34-1.15,2.74,2.74,0,0,1,.34-.55,1.7,1.7,0,0,1,.51-.45l.12-.07.06,0a.43.43,0,0,1,.15-.06,1,1,0,0,1,.43,0,1.19,1.19,0,0,1,.69.37,3.38,3.38,0,0,1,.65,1.07,9.71,9.71,0,0,1,.38,1.11,20.12,20.12,0,0,1,.44,2.24,35.9,35.9,0,0,1,.35,4.51v.15l-.11.09-.5.39-.22.21a2.2,2.2,0,0,0-.2.23l-.16.24a1.53,1.53,0,0,0-.11.27,1.06,1.06,0,0,0,0,.54,1.23,1.23,0,0,0,.25.53A2.29,2.29,0,0,0,37,63,5.73,5.73,0,0,0,38.14,63.72Z"/><path class="cls-12" d="M66.44,57.65c2.09-.76,4.21-1.38,6.34-2l-.29.75c-.45-.62-.86-1.23-1.27-1.86s-.8-1.26-1.18-1.9c-.78-1.28-1.45-2.61-2.13-3.94a38.65,38.65,0,0,1-1.71-4.16l-.35-1.06a8.25,8.25,0,0,1-.3-1.08c-.17-.74-.32-1.47-.45-2.2.31.69.61,1.37.88,2s.63,1.34.93,2l.47,1c.15.34.34.65.51,1l1,2c.36.64.71,1.29,1.06,1.93l1.09,1.92c.35.65.75,1.27,1.11,1.92s.75,1.26,1.12,1.89l.38.62-.67.13C70.83,57.05,68.65,57.41,66.44,57.65Z"/><path class="cls-10" d="M65.9,40.13a2.85,2.85,0,0,1,.15-.7,4.47,4.47,0,0,1,.29-.77,5.75,5.75,0,0,1,.51-.92,6.24,6.24,0,0,1,.78-1,7.69,7.69,0,0,1,1.06-1A8.14,8.14,0,0,1,70,35c.25-.1.5-.23.76-.32l.8-.21a7.48,7.48,0,0,1,1.63-.19,10,10,0,0,1,1.57.15,14,14,0,0,1,1.38.44,6.93,6.93,0,0,1,1.12.6,4.15,4.15,0,0,1,.85.62c.24.21.43.41.59.57a5.89,5.89,0,0,1,.46.54s-.28,0-.71,0c-.22,0-.49,0-.77-.09s-.61-.05-1-.09-.7-.08-1.08-.07l-1.15,0c-.38,0-.78,0-1.17.09a9.42,9.42,0,0,0-1.16.21l-.58.12-.57.19c-.38.1-.73.29-1.1.41s-.72.31-1,.5-.66.33-1,.51c-.59.34-1.11.65-1.47.88Z"/><path class="cls-10" d="M47.43,44.07a3.61,3.61,0,0,1,.15-.7,5.5,5.5,0,0,1,.29-.77,7.28,7.28,0,0,1,.51-.92,7.63,7.63,0,0,1,.78-1,7.21,7.21,0,0,1,2.42-1.77c.24-.1.49-.22.75-.32l.8-.21a7.64,7.64,0,0,1,1.64-.19,11.29,11.29,0,0,1,1.57.15,13.81,13.81,0,0,1,1.37.44,6.53,6.53,0,0,1,1.12.6,4.65,4.65,0,0,1,.86.62c.23.21.42.41.58.57a5.89,5.89,0,0,1,.46.54s-.27,0-.71,0c-.22,0-.48,0-.76-.09a9.08,9.08,0,0,0-1-.08c-.34,0-.7-.08-1.07-.08l-1.15,0c-.39.05-.78,0-1.17.09a9.25,9.25,0,0,0-1.17.21l-.58.13c-.18.07-.37.12-.56.18-.39.1-.74.29-1.11.41s-.72.31-1,.5-.66.34-1,.51c-.59.34-1.11.65-1.48.88Z"/><path class="cls-10" d="M59.2,47.06c.31,1.81.06,3.36-.55,3.46S57.27,49.26,57,47.45s-.07-3.35.55-3.46S58.88,45.26,59.2,47.06Z"/><path class="cls-10" d="M77.08,43.93c.31,1.8.06,3.35-.55,3.46s-1.38-1.27-1.69-3.07-.07-3.35.55-3.46S76.76,42.12,77.08,43.93Z"/><path class="cls-13" d="M56.46,63.46s9.15-.72,19.3-1.46C75.76,62,67.93,71.87,56.46,63.46Z"/></g></g></svg>